<svg width="91" height="24" viewBox="0 0 91 24" fill="none" xmlns="http://www.w3.org/2000/svg">
<path d="M0.298516 10.6C0.951849 10.5733 1.43185 10.4333 1.73852 10.18C2.04518 9.91333 2.19852 9.54 2.19852 9.06C2.19852 8.7 2.13185 7.98667 1.99852 6.92C1.98518 6.81333 1.94518 6.47333 1.87852 5.9C1.81185 5.31333 1.77852 4.78667 1.77852 4.32C1.77852 3.18667 2.12518 2.30667 2.81852 1.68C3.51185 1.04 4.43852 0.719999 5.59852 0.719999H7.03852V3.52H6.25852C5.83185 3.52 5.52518 3.61333 5.33852 3.8C5.15185 3.98667 5.05852 4.27333 5.05852 4.66C5.05852 4.95333 5.11185 5.62 5.21852 6.66C5.33852 7.95333 5.39852 8.8 5.39852 9.2C5.39852 9.93333 5.21852 10.54 4.85852 11.02C4.51185 11.5 3.97852 11.8067 3.25852 11.94V11.98C3.97852 12.1267 4.51185 12.44 4.85852 12.92C5.21852 13.3867 5.39852 13.9933 5.39852 14.74C5.39852 15.14 5.33852 15.9867 5.21852 17.28C5.11185 18.2933 5.05852 18.9533 5.05852 19.26C5.05852 19.6467 5.15185 19.9333 5.33852 20.12C5.52518 20.32 5.83185 20.42 6.25852 20.42H7.03852V23.22H5.59852C4.43852 23.22 3.51185 22.9 2.81852 22.26C2.12518 21.6333 1.77852 20.7467 1.77852 19.6C1.77852 19.1333 1.81185 18.6133 1.87852 18.04C1.94518 17.4533 1.98518 17.1067 1.99852 17C2.13185 15.9333 2.19852 15.22 2.19852 14.86C2.19852 14.4067 2.04518 14.0467 1.73852 13.78C1.43185 13.5 0.951849 13.3467 0.298516 13.32V10.6ZM21.0973 19L18.1773 13.7H17.3573V19H13.9373V4.96H19.6773C20.7839 4.96 21.7239 5.15333 22.4973 5.54C23.2839 5.92667 23.8706 6.46 24.2573 7.14C24.6439 7.80667 24.8373 8.55333 24.8373 9.38C24.8373 10.3133 24.5706 11.1467 24.0373 11.88C23.5173 12.6133 22.7439 13.1333 21.7173 13.44L24.9573 19H21.0973ZM17.3573 11.28H19.4773C20.1039 11.28 20.5706 11.1267 20.8773 10.82C21.1973 10.5133 21.3573 10.08 21.3573 9.52C21.3573 8.98667 21.1973 8.56667 20.8773 8.26C20.5706 7.95333 20.1039 7.8 19.4773 7.8H17.3573V11.28ZM35.4841 11.8C36.2975 11.9733 36.9508 12.38 37.4441 13.02C37.9375 13.6467 38.1841 14.3667 38.1841 15.18C38.1841 16.3533 37.7708 17.2867 36.9441 17.98C36.1308 18.66 34.9908 19 33.5241 19H26.9841V4.96H33.3041C34.7308 4.96 35.8441 5.28667 36.6441 5.94C37.4575 6.59333 37.8641 7.48 37.8641 8.6C37.8641 9.42667 37.6441 10.1133 37.2041 10.66C36.7775 11.2067 36.2041 11.5867 35.4841 11.8ZM30.4041 10.64H32.6441C33.2041 10.64 33.6308 10.52 33.9241 10.28C34.2308 10.0267 34.3841 9.66 34.3841 9.18C34.3841 8.7 34.2308 8.33333 33.9241 8.08C33.6308 7.82667 33.2041 7.7 32.6441 7.7H30.4041V10.64ZM32.9241 16.24C33.4975 16.24 33.9375 16.1133 34.2441 15.86C34.5641 15.5933 34.7241 15.2133 34.7241 14.72C34.7241 14.2267 34.5575 13.84 34.2241 13.56C33.9041 13.28 33.4575 13.14 32.8841 13.14H30.4041V16.24H32.9241ZM45.4277 4.96C46.9077 4.96 48.2011 5.25333 49.3077 5.84C50.4144 6.42667 51.2677 7.25333 51.8677 8.32C52.4811 9.37333 52.7877 10.5933 52.7877 11.98C52.7877 13.3533 52.4811 14.5733 51.8677 15.64C51.2677 16.7067 50.4077 17.5333 49.2877 18.12C48.1811 18.7067 46.8944 19 45.4277 19H40.1677V4.96H45.4277ZM45.2077 16.04C46.5011 16.04 47.5077 15.6867 48.2277 14.98C48.9477 14.2733 49.3077 13.2733 49.3077 11.98C49.3077 10.6867 48.9477 9.68 48.2277 8.96C47.5077 8.24 46.5011 7.88 45.2077 7.88H43.5877V16.04H45.2077ZM65.219 13.24C65.219 13.56 65.199 13.8933 65.159 14.24H57.419C57.4723 14.9333 57.6923 15.4667 58.079 15.84C58.479 16.2 58.9657 16.38 59.539 16.38C60.3923 16.38 60.9857 16.02 61.319 15.3H64.959C64.7723 16.0333 64.4323 16.6933 63.939 17.28C63.459 17.8667 62.8523 18.3267 62.119 18.66C61.3857 18.9933 60.5657 19.16 59.659 19.16C58.5657 19.16 57.5923 18.9267 56.739 18.46C55.8857 17.9933 55.219 17.3267 54.739 16.46C54.259 15.5933 54.019 14.58 54.019 13.42C54.019 12.26 54.2523 11.2467 54.719 10.38C55.199 9.51333 55.8657 8.84667 56.719 8.38C57.5723 7.91333 58.5523 7.68 59.659 7.68C60.739 7.68 61.699 7.90667 62.539 8.36C63.379 8.81333 64.0323 9.46 64.499 10.3C64.979 11.14 65.219 12.12 65.219 13.24ZM61.719 12.34C61.719 11.7533 61.519 11.2867 61.119 10.94C60.719 10.5933 60.219 10.42 59.619 10.42C59.0457 10.42 58.559 10.5867 58.159 10.92C57.7723 11.2533 57.5323 11.7267 57.439 12.34H61.719ZM72.0432 15.8L74.4632 7.84H78.1032L74.1432 19H69.9232L65.9632 7.84H69.6232L72.0432 15.8ZM90.701 13.32C90.0477 13.3467 89.5677 13.5 89.261 13.78C88.9543 14.0467 88.801 14.4067 88.801 14.86C88.801 15.22 88.8677 15.9333 89.001 17C89.0143 17.1067 89.0543 17.4533 89.121 18.04C89.1877 18.6133 89.221 19.1333 89.221 19.6C89.221 20.7467 88.8743 21.6333 88.181 22.26C87.4877 22.9 86.561 23.22 85.401 23.22H83.961V20.42H84.741C85.1677 20.42 85.4743 20.32 85.661 20.12C85.8477 19.9333 85.941 19.6467 85.941 19.26C85.941 18.9533 85.8877 18.2933 85.781 17.28C85.661 15.9867 85.601 15.14 85.601 14.74C85.601 13.9933 85.7743 13.3867 86.121 12.92C86.481 12.44 87.021 12.1267 87.741 11.98V11.94C87.021 11.8067 86.481 11.5 86.121 11.02C85.7743 10.54 85.601 9.93333 85.601 9.2C85.601 8.8 85.661 7.95333 85.781 6.66C85.8877 5.62 85.941 4.95333 85.941 4.66C85.941 4.27333 85.8477 3.98667 85.661 3.8C85.4743 3.61333 85.1677 3.52 84.741 3.52H83.961V0.719999H85.401C86.561 0.719999 87.4877 1.04 88.181 1.68C88.8743 2.30667 89.221 3.18667 89.221 4.32C89.221 4.78667 89.1877 5.31333 89.121 5.9C89.0543 6.47333 89.0143 6.81333 89.001 6.92C88.8677 7.98667 88.801 8.7 88.801 9.06C88.801 9.54 88.9543 9.91333 89.261 10.18C89.5677 10.4333 90.0477 10.5733 90.701 10.6V13.32Z" fill="#121212"/>
</svg>
