<svg width="30" height="32" viewBox="0 0 30 32" fill="none" xmlns="http://www.w3.org/2000/svg">
<path d="M0.525313 14.296C1.42131 14.2213 2.09331 13.9787 2.54131 13.568C3.00798 13.1573 3.24131 12.6067 3.24131 11.916C3.24131 11.132 3.15731 10.0027 2.98931 8.528C2.80265 6.77333 2.70931 5.49467 2.70931 4.692C2.70931 3.236 3.13865 2.10667 3.99731 1.304C4.87465 0.482665 6.03198 0.0719984 7.46931 0.0719984H9.40131V3.376H8.22531C7.06798 3.376 6.48931 3.92667 6.48931 5.028C6.48931 5.55067 6.56398 6.596 6.71331 8.164C6.73198 8.35067 6.77865 8.88267 6.85331 9.76C6.92798 10.6187 6.96531 11.384 6.96531 12.056C6.96531 13.0453 6.72265 13.8667 6.23731 14.52C5.75198 15.1733 5.01465 15.5933 4.02531 15.78V15.836C5.01465 16.0413 5.75198 16.4707 6.23731 17.124C6.72265 17.7587 6.96531 18.58 6.96531 19.588C6.96531 20.2227 6.92798 20.9787 6.85331 21.856C6.77865 22.7147 6.73198 23.256 6.71331 23.48C6.56398 25.048 6.48931 26.084 6.48931 26.588C6.48931 27.1667 6.62931 27.5867 6.90931 27.848C7.18931 28.1093 7.62798 28.24 8.22531 28.24H9.40131V31.572H7.46931C6.03198 31.572 4.87465 31.1613 3.99731 30.34C3.13865 29.5373 2.70931 28.408 2.70931 26.952C2.70931 26.1307 2.80265 24.8427 2.98931 23.088C3.15731 21.6133 3.24131 20.4933 3.24131 19.728C3.24131 19.0373 3.00798 18.4867 2.54131 18.076C2.09331 17.6653 1.42131 17.4227 0.525313 17.348V14.296ZM29.4799 17.348C28.5839 17.4227 27.9026 17.6653 27.4359 18.076C26.9879 18.4867 26.7639 19.0373 26.7639 19.728C26.7639 20.4933 26.8479 21.6133 27.0159 23.088C27.2026 24.8427 27.2959 26.1307 27.2959 26.952C27.2959 28.408 26.8573 29.5373 25.9799 30.34C25.1213 31.1613 23.9733 31.572 22.5359 31.572H20.6039V28.24H21.7799C22.3773 28.24 22.8159 28.1093 23.0959 27.848C23.3759 27.5867 23.5159 27.1667 23.5159 26.588C23.5159 26.084 23.4413 25.048 23.2919 23.48C23.2733 23.256 23.2266 22.7147 23.1519 21.856C23.0773 20.9787 23.0399 20.2227 23.0399 19.588C23.0399 18.58 23.2826 17.7587 23.7679 17.124C24.2533 16.4707 24.9906 16.0413 25.9799 15.836V15.78C24.9906 15.5933 24.2533 15.1733 23.7679 14.52C23.2826 13.8667 23.0399 13.0453 23.0399 12.056C23.0399 11.384 23.0773 10.6187 23.1519 9.76C23.2266 8.88267 23.2733 8.35067 23.2919 8.164C23.4413 6.596 23.5159 5.55067 23.5159 5.028C23.5159 3.92667 22.9373 3.376 21.7799 3.376H20.6039V0.0719984H22.5359C23.9733 0.0719984 25.1213 0.482665 25.9799 1.304C26.8573 2.10667 27.2959 3.236 27.2959 4.692C27.2959 5.49467 27.2026 6.77333 27.0159 8.528C26.8479 10.0027 26.7639 11.132 26.7639 11.916C26.7639 12.6067 26.9879 13.1573 27.4359 13.568C27.9026 13.9787 28.5839 14.2213 29.4799 14.296V17.348Z" fill="#FF9800"/>
</svg>
